<svg width="1440.000000" height="470.000000" viewBox="0 0 1440 470" fill="none" xmlns="http://www.w3.org/2000/svg" xmlns:xlink="http://www.w3.org/1999/xlink">
	<desc>
			Created with Pixso.
	</desc>
	<defs>
		<clipPath id="clip11_334">
			<rect id="Frame 8407" width="1440.000000" height="470.000000" fill="white" fill-opacity="0"/>
		</clipPath>
	</defs>
	<rect id="Frame 8407" width="1440.000000" height="470.000000" fill="#FFFFFF" fill-opacity="0"/>
	<g clip-path="url(#clip11_334)">
		<rect id="Rectangle 2698" width="1440.000000" height="470.000000" fill="#05633B" fill-opacity="1.000000"/>
		<path id="path52" d="M281.2 429.06Q295.04 429.28 312.39 427.05Q313.67 426.88 314.33 426.8Q319.56 426.13 329.35 424.06Q340.94 421.6 341.91 420.56L342.2 420.24L345.95 419.24L346.34 420.68L345.73 419.31Q347.04 418.73 349.7 417.65Q352.72 416.44 354.14 415.78Q356.01 414.91 359.69 413.03Q363.27 411.19 365.16 410.3L365.23 410.27L365.32 410.24Q365.82 410.07 367.08 409.34Q367.81 408.92 368.22 408.7Q368.99 408.28 370.62 407.39Q374.4 405.33 375.86 404.61L380.33 402.38L384.92 400.07Q389.05 397.97 395.28 395.64Q403.03 392.75 406.09 392.8L406.06 394.3L405.81 392.82Q405.98 392.79 406.3 392.74Q408.4 392.39 409.13 391.91L409.48 391.67L409.9 391.66Q411.74 391.57 415.14 391.22Q420.58 390.67 423.82 390.76Q436.72 391.09 448.14 395.75Q449.5 396.3 452.18 397.62Q453.78 398.41 454.61 398.8Q454.85 398.91 455.41 399.16Q457.71 400.21 458.97 400.92Q459.8 401.38 461.44 402.34Q465.59 404.78 466.32 404.9Q468.1 405.2 468.94 405.01Q468.76 405.05 468.58 405.47Q468.31 406.09 468.59 406.38L469.67 405.34L468.7 406.49Q467.7 405.64 465.82 404.03Q459.92 398.97 456.79 396.79Q450.97 392.74 443.68 389.37Q434.75 385.24 429.06 384.3Q422.82 383.26 409.44 385.61Q404.4 386.49 394.17 389.91Q389.48 391.48 379.06 395.73Q371.11 398.98 367.21 400.42Q366.97 400.51 366.34 400.75Q350.25 406.74 338.35 409.82Q323.1 413.78 314.22 413.2Q307.75 412.78 306.4 409.97L305.54 408.21L307.47 407.85Q307.93 407.76 308.73 407.62Q328.47 403.97 339.05 400.27Q342.57 399.03 349.46 396.16Q353.67 394.41 355.82 393.56Q356.82 393.17 358.8 392.39Q366.58 389.33 370.6 387.82Q370.66 387.8 371.26 387.56Q382.22 383.36 390.45 380.52Q409.27 374.04 420.5 373.28Q433.1 372.42 445.78 376.98Q455.14 380.33 464.57 388.81Q467.99 391.87 473.07 396.91Q474.86 398.68 475.43 399.22L474.41 400.32L473.05 399.67L474 397.69L475.35 398.34L474.24 399.35Q473.49 398.51 472.24 396.43Q471.59 395.34 471.23 394.8Q468.97 391.39 464.27 386.13Q462.36 383.99 459.18 381.22L460.17 380.09L459.27 381.29Q458.1 380.42 456 378.63Q453.82 376.77 452.68 375.95Q437.4 365 412.82 367.26Q394.57 368.94 378.26 375.8Q374.37 377.43 367.21 381.42Q361.89 384.38 359.05 385.76Q340.82 394.56 322.43 398.43Q321.32 398.66 319.03 399.16Q300.67 403.13 288.54 402.99L288.56 401.49L290.01 401.86L282.63 430.93L281.17 430.56L281.2 429.06ZM279.25 432.03L287.39 399.98L288.57 399.99Q300.37 400.13 318.4 396.22Q320.69 395.73 321.81 395.49Q339.85 391.69 357.74 383.06Q360.51 381.72 365.75 378.8Q373.06 374.72 377.1 373.03Q393.83 365.99 412.54 364.27Q438.24 361.91 454.43 373.51Q455.67 374.41 457.95 376.35Q459.97 378.07 461.07 378.89L461.11 378.92L461.16 378.96Q464.48 381.86 466.51 384.13Q471.36 389.56 473.73 393.15Q474.12 393.74 474.81 394.89Q475.91 396.72 476.46 397.33L477.14 398.08L474.88 402.81L473.38 401.41Q472.78 400.85 470.95 399.04Q465.93 394.06 462.57 391.04Q453.57 382.96 444.77 379.81Q432.67 375.46 420.7 376.27Q409.87 377 391.43 383.36Q383.24 386.18 372.34 390.36Q371.7 390.61 371.65 390.63Q367.65 392.13 359.9 395.18Q357.93 395.96 356.92 396.36Q354.79 397.19 350.61 398.93Q343.64 401.83 340.04 403.1Q329.25 406.87 309.27 410.57Q308.48 410.71 308.02 410.8L307.75 409.32L309.1 408.67Q309.69 409.9 314.42 410.21Q322.81 410.76 337.6 406.92Q349.35 403.87 365.29 397.93Q365.92 397.7 366.17 397.61Q370.02 396.18 377.93 392.95Q388.44 388.67 393.22 387.07Q403.66 383.57 408.92 382.65Q422.81 380.22 429.55 381.34Q435.64 382.35 444.94 386.65Q452.47 390.13 458.5 394.33Q461.76 396.6 467.77 401.75Q469.65 403.36 470.64 404.19L470.69 404.24L470.75 404.3Q471.86 405.45 471.33 406.67Q470.91 407.63 469.61 407.93Q468.19 408.26 465.83 407.86Q464.55 407.64 459.92 404.93Q458.3 403.98 457.5 403.53Q456.35 402.89 454.16 401.89Q453.59 401.63 453.35 401.52Q452.48 401.12 450.85 400.31Q448.26 399.04 447.01 398.52Q436.09 394.07 423.74 393.75Q420.69 393.67 415.45 394.21Q411.96 394.56 410.03 394.65L409.97 393.15L410.8 394.4Q409.53 395.25 406.79 395.7Q406.47 395.75 406.32 395.78L406.18 395.8L406.04 395.8Q403.55 395.76 396.33 398.45Q390.26 400.72 386.27 402.74L381.67 405.07L377.19 407.3Q375.79 407.99 372.05 410.03Q370.42 410.92 369.63 411.34Q369.27 411.54 368.58 411.94Q367.06 412.82 366.27 413.08L365.79 411.66L366.43 413.02Q364.59 413.89 361.05 415.7Q357.33 417.6 355.4 418.5Q353.91 419.19 350.82 420.44Q348.22 421.49 346.95 422.05L346.84 422.1L343.4 423.03L343.01 421.58L344.11 422.59Q342.5 424.34 329.98 426.99Q320.07 429.09 314.71 429.77Q314.05 429.86 312.77 430.02Q295.21 432.28 281.15 432.06L279.25 432.03ZM345.72 369.32Q334.38 375.83 327.95 378.07Q320.08 380.8 308.21 381.67Q306.6 381.78 303.42 381.96Q297.21 382.31 293.88 382.69L293.71 381.2L295.17 381.57L291.89 394.46L290.44 394.09L290.38 392.59Q292.23 392.52 296.07 392.43Q307.18 392.18 312.96 391.48Q321.73 390.4 332.3 387.29Q345.93 383.26 370.94 370.84Q372.88 369.88 376.84 368.17Q382.39 365.78 384.51 364.47L384.62 364.41L384.73 364.36Q401.47 357.41 409.59 355.58Q418.62 353.54 428.88 354.87Q441.69 356.52 454.85 364.55Q466.44 371.64 476.24 382.3Q478.08 384.29 481.04 388.1L479.86 389.02L478.37 388.92Q478.4 388.46 477.59 386.54Q477.52 386.39 477.49 386.3Q477.37 386.01 477.14 385.39Q475.94 382.15 473.13 376.61L474.46 375.93L473.15 376.65L470.27 371.4L471.59 370.68L470.34 371.5Q469.65 370.47 468.52 368.61Q467.41 366.76 466.83 365.93Q464.41 362.45 459.84 357.59Q450.46 347.59 438.9 342.78Q434.18 340.82 427.55 339.91Q427.21 339.86 426.37 339.71Q423.89 339.26 422.2 339.16Q400.81 337.92 374.28 352.92L354.24 364.42L345.72 369.32L345.72 369.32ZM344.22 366.72L352.75 361.81L372.81 350.3Q400.11 334.88 422.38 336.17Q424.25 336.28 426.9 336.76Q427.68 336.9 427.96 336.94Q434.97 337.9 440.05 340.01Q452.2 345.07 462.03 355.54Q466.74 360.56 469.29 364.22Q469.92 365.13 471.09 367.06Q472.18 368.86 472.84 369.85L472.87 369.9L475.79 375.23L475.8 375.25Q478.69 380.95 479.95 384.35Q480.16 384.91 480.26 385.15Q480.29 385.22 480.35 385.38Q481.44 387.96 481.36 389.12L481.1 393.04L478.68 389.94Q475.79 386.23 474.03 384.33Q464.52 373.98 453.28 367.11Q440.67 359.41 428.49 357.85Q418.76 356.59 410.25 358.51Q402.39 360.28 385.88 367.13L385.3 365.75L386.09 367.03Q383.78 368.45 378.03 370.92Q374.14 372.6 372.28 373.52Q347.03 386.06 333.15 390.16Q322.34 393.35 313.32 394.45Q307.4 395.18 296.14 395.43Q292.32 395.52 290.49 395.59L288.49 395.66L292.51 379.82L293.54 379.71Q296.96 379.32 303.25 378.97Q306.41 378.79 307.99 378.67Q319.47 377.84 326.96 375.23Q333.13 373.09 344.22 366.72L344.22 366.72ZM486.3 2.16Q486.06 2.41 485.75 2.72Q485.53 2.94 485.44 3.15Q485.26 3.57 485.1 3.91Q473.66 28.66 449.08 50.45Q442.34 56.42 427.56 67.74Q406.33 83.99 398.91 92.25Q386.92 105.59 387.01 122.24Q387.11 139.43 398.9 152.36Q411.84 166.53 432.33 167.14Q439.78 167.35 454.44 165.08Q457.46 164.61 458.86 164.41Q460.52 164.15 464.3 162.87Q467.98 161.62 469.43 161.46L471.1 161.28L471.09 162.96Q470.93 217.63 445.25 225.76Q432.71 229.75 418.52 225.49Q409.32 222.72 394.27 214.18L393.65 213.83L393.53 213.13Q393.28 211.65 393.72 208.63Q394.01 206.7 394.61 202.92Q396.46 191.21 396.88 185.06Q398.32 164.56 383.88 150.6Q374.96 141.99 365.19 139.32Q354.91 136.51 342.99 137.8Q324.16 139.81 309.27 150.3Q299.93 156.89 282.51 175.44Q273 185.58 267.56 190.96Q252.85 205.47 235.66 216.63Q232.33 218.79 225.8 222.71Q223.2 224.26 221.88 225.06L221.1 223.78L222.19 222.75Q225.7 226.43 233.82 232.23Q236.82 234.38 238.26 235.47Q260.68 252.47 278.17 274.19Q281.95 278.88 289.57 289.17Q305.53 310.7 314.3 319.04Q321.83 326.2 329.27 330.18Q340.21 336.05 352.31 336.45Q361.47 336.76 368.52 334.66Q378.04 331.81 385.6 325.07Q398.64 313.47 401.95 294.74Q404.87 278.22 399.91 259.42Q399.73 258.74 399.22 257.27Q398.07 253.95 398.02 252.18Q397.98 250.99 398.39 250.04L398.84 249L399.97 249.15Q401.42 249.35 403.39 250.55Q404.15 251.01 404.5 251.17Q412.6 254.84 421.2 260.53L421.22 260.54L421.24 260.56Q435.31 270.54 443.62 283.36Q448.99 291.65 453.43 302.78Q457.88 313.93 461.5 328.59Q464.67 341.4 465.46 349.22L463.96 349.37L465.19 348.51L486.07 378.32L484.84 379.18L483.34 379.18L483.71 1.13L485.21 1.13L486.3 2.16ZM486.72 -2.61L486.34 383.93L462.51 349.91L462.47 349.52Q461.71 341.92 458.59 329.31Q455.02 314.85 450.65 303.89Q446.31 293.03 441.1 284.99Q433.1 272.66 419.51 263L420.37 261.78L419.55 263.03Q411.14 257.48 403.25 253.9Q402.74 253.67 401.83 253.11Q400.39 252.23 399.57 252.12L399.77 250.64L401.15 251.23Q401 251.56 401.02 252.09Q401.06 253.4 402.06 256.29Q402.61 257.87 402.81 258.66Q407.94 278.09 404.91 295.26Q401.42 315.02 387.6 327.31Q379.54 334.49 369.38 337.53Q361.85 339.78 352.21 339.45Q339.41 339.02 327.85 332.82Q320.06 328.65 312.23 321.22Q303.28 312.7 287.17 290.95Q279.57 280.71 275.84 276.07Q258.57 254.63 236.44 237.86Q235.04 236.79 232.07 234.67Q223.73 228.71 220.02 224.82L218.73 223.47L220.32 222.5Q221.65 221.7 224.25 220.13Q230.74 216.24 234.03 214.11Q250.96 203.12 265.45 188.82Q270.85 183.48 280.32 173.39Q297.95 154.61 307.54 147.85Q323.07 136.91 342.67 134.81Q355.15 133.47 365.98 136.42Q376.5 139.3 385.96 148.45Q401.41 163.37 399.88 185.27Q399.44 191.55 397.57 203.39Q396.98 207.16 396.69 209.08Q396.31 211.61 396.49 212.62L395.01 212.88L395.75 211.57Q410.51 219.95 419.39 222.61Q432.68 226.61 444.34 222.9Q467.94 215.43 468.09 162.95L469.59 162.95L469.75 164.45Q468.63 164.57 465.26 165.71Q461.24 167.07 459.28 167.38Q457.9 167.58 454.9 168.04Q439.97 170.36 432.24 170.14Q410.48 169.49 396.69 154.38Q384.11 140.6 384.01 122.26Q383.92 104.44 396.68 90.24Q404.28 81.78 425.74 65.35Q440.44 54.1 447.09 48.21Q471.2 26.83 482.38 2.65Q482.53 2.34 482.69 1.97Q483 1.23 483.62 0.61Q483.91 0.32 484.13 0.09L486.72 -2.61ZM407.19 406.1Q398.67 407.05 383.86 411.41Q382.84 411.7 380.85 412.46Q378.4 413.38 377.05 413.75L377.03 413.75L377.01 413.76Q376.89 413.78 376.68 413.84Q375.04 414.22 374.21 414.88L373.99 415.05L373.73 415.13Q370.19 416.26 362.53 419.65Q357.79 421.74 352.18 423.94Q343.62 427.3 333.18 430.75Q311.34 437.98 289.25 436.69L289.06 436.68Q282.75 436.31 279.97 435.87L280.2 434.39L281.65 434.76L278.63 446.67L277.17 446.3L277.23 444.8Q278.63 444.85 281.34 444.44Q282.94 444.2 283.84 444.11Q284.92 444 287.18 443.8Q292.04 443.38 294.6 443Q295.82 442.82 298.34 442.46Q309.92 440.79 315.82 439.49Q328.84 436.62 351.84 429.74Q354.53 428.94 355.78 428.57Q361.19 426.96 371.83 423.3Q386.78 418.14 394.45 416.21Q412.47 411.67 429.67 410.94Q442.98 410.37 454.01 412.69Q459.24 413.79 462.5 413.87L462.47 415.37L461.09 414.77L462.26 412.06L463.64 412.65L462.88 413.95Q462.14 413.51 460.8 412.71Q454.61 409.04 452.12 408.14Q445.36 405.72 435.09 404.98Q424.18 404.19 407.2 406.1L407.19 406.1ZM406.86 403.12Q424.12 401.18 435.3 401.99Q445.99 402.76 453.13 405.32Q455.9 406.31 462.33 410.13Q463.67 410.93 464.4 411.36L465.54 412.03L463.44 416.89L462.43 416.86Q458.9 416.78 453.39 415.63Q442.73 413.38 429.8 413.94Q412.91 414.65 395.18 419.12Q387.64 421.02 372.8 426.13Q362.11 429.82 356.63 431.45Q355.39 431.82 352.7 432.62Q329.6 439.52 316.46 442.42Q310.46 443.74 298.76 445.43Q296.26 445.79 295.03 445.97Q292.39 446.36 287.44 446.79Q285.2 446.99 284.15 447.09Q283.31 447.18 281.78 447.41Q278.8 447.86 277.12 447.8L275.26 447.73L279.08 432.7L280.43 432.91Q283.07 433.32 289.24 433.68Q289.36 433.69 289.42 433.69Q310.94 434.95 332.24 427.9Q342.6 424.47 351.08 421.15Q356.63 418.97 361.32 416.9Q369.12 413.45 372.82 412.27L373.28 413.7L372.35 412.52Q373.71 411.46 375.99 410.92Q376.2 410.87 376.31 410.84L376.66 412.3L376.27 410.85Q377.48 410.52 379.79 409.65Q381.89 408.86 383.02 408.53Q398.08 404.1 406.86 403.12L406.86 403.12ZM286.48 468.91L274.2 454.98L274.18 454.95Q271.27 451.37 269.32 448.87Q263.06 440.82 259.53 435.42Q243.08 410.26 232.84 386.44Q224.12 366.16 219.77 347.98Q216.17 332.97 214.85 325.58Q206.87 280.92 213.58 230.42Q214.64 222.48 218.4 206.34Q219.51 201.59 220.03 199.28Q220.64 196.56 222.55 190.72Q224.42 184.97 225.08 182.17L225.12 182.04L226.12 179.77L227.49 180.37L226.01 180.15Q226.48 176.99 230.2 168.29Q248.69 125.14 273.87 93.69Q295.78 66.31 327.97 43.62L328.83 44.85L327.88 43.69Q345.82 28.97 389.43 12.38Q402.86 7.27 429.9 2.46Q435.55 1.46 438.41 0.93Q445.26 -0.35 462.09 -1.12Q478.94 -1.9 484.75 -1.2L485.41 -1.12L485.8 -0.58Q498.03 16.63 501.71 22.69Q502.27 23.6 502.63 24.07Q506.73 29.23 528.58 50.08Q535.02 56.21 549.58 66.69Q556.26 71.49 559.54 74Q560 74.35 560.9 75.04Q572.2 83.64 576.89 88.93Q584.56 97.59 586.86 109.05Q589.93 124.37 585.17 138.2Q580.25 152.54 568.08 161.68Q553.63 172.54 534.65 171.54Q523.3 170.95 508.31 168.04Q504.33 167.27 502.08 166.85L502.35 165.38L503.79 164.94L520.22 218.77L518.78 219.21L519.79 218.09Q529.33 226.67 545.88 224.23Q554.03 223.03 563.52 218.67Q568.21 216.51 571.03 215.48L571.54 216.89L570.8 215.58Q571.18 215.37 571.89 214.95Q573.13 214.23 573.78 213.89Q574.33 213.61 575.46 213.09Q576.04 212.83 576.33 212.7L576.96 214.06L575.49 213.76Q575.61 213.19 574.72 211.91L574.57 211.69L574.5 211.43Q569.95 193.78 569.82 184.06Q569.64 169.55 577.19 157.36Q579.07 154.33 582.81 150.12Q595.75 135.54 614.2 133.32Q627.97 131.68 641.58 135.39Q655.2 139.12 666.21 147.55Q669.07 149.77 671.36 151.82Q678.08 157.81 690.13 170.91Q694.13 175.26 696.16 177.43Q721.81 204.72 748.52 219.73Q751.68 221.51 753.14 222.6Q753.8 223.11 754.18 223.84Q754.16 223.82 754.14 223.78L754.76 224.81L753.88 225.64Q752.91 226.56 750.46 228.07Q748.85 229.07 748.07 229.63Q727.62 244.42 711.1 262.03Q699.51 274.39 680.03 299.5Q679.26 300.5 677.73 302.48Q664.11 320.14 654.66 327.59Q642.41 337.26 627.96 340.41Q612.3 343.82 598.44 338.47Q592.44 336.14 589.44 334.1Q569.42 320.47 563.85 297.82Q562.75 293.36 562.97 284.86Q563.2 275.33 564.36 267.99Q565.21 262.57 568.5 253.66L569.91 254.18L570.11 255.66Q564.4 256.44 558.61 260Q549.6 265.53 543.78 271.31Q535.83 279.22 530.07 288.96Q526.04 295.78 520.21 309.04L518.84 308.43L520.26 308.91L517.53 317.07Q517.36 317.55 517.02 318.55Q515.43 323.18 514.91 325.66L514.85 325.95Q512.21 338.54 511.01 343.64Q510.69 345.01 510.11 347.42Q509.36 350.51 509.16 351.46Q509.02 352.14 509 352.43L508.98 352.36Q508.82 351.39 507.79 351.24Q507.13 351.15 506.72 351.51Q506.79 351.45 506.95 351.29Q507.19 351.05 507.92 350.29Q511.76 346.31 514.01 344.43Q516.47 342.38 522.53 339.9Q527.71 337.77 531.52 336.84L531.88 338.3L531.4 336.88Q538.88 334.38 547.53 334.38Q556.2 334.39 566.72 336.99Q577.71 339.72 588.09 344.73Q599.94 350.46 617.38 361.28Q621.16 363.62 628.85 368.03Q633.62 370.77 635.92 372.13Q644 376.95 651.76 378.19Q656.72 378.98 667.68 378.66Q672.8 378.52 675.67 378.5L676.85 378.49L680.9 394.88L655.91 393.18Q650.03 392.7 640.33 390.54Q629.96 388.23 625.04 386.08L625.64 384.7L625.1 386.1Q619.98 384.11 609.86 378.33Q606.05 376.16 604.11 375.1Q597 371.22 590.88 368.87Q572.9 361.94 561.51 359.62Q551.56 357.6 543.35 358.33Q539.46 358.72 533.57 360.51Q529.81 361.65 528.39 362.4L528.36 362.42L528.33 362.43Q528.06 362.56 527.14 362.97Q521.15 365.68 520.74 366.08L520.56 366.26L520.34 366.36Q515.68 368.59 509.49 373.76Q502.71 379.42 498.26 385.27Q495.5 388.91 494.01 392.31Q493.26 394.02 493.02 395.63Q493 395.74 492.97 395.96Q492.85 396.69 492.89 396.95L492.9 397.04L492.9 397.13Q492.9 396.6 492.61 396.26Q492.65 396.31 492.73 396.4Q492.97 396.64 493.26 396.91Q493.95 397.56 494.16 397.64Q493.67 397.46 493.32 397.82Q493.34 397.8 493.46 397.55Q493.62 397.2 493.76 397.02Q494.08 396.61 494.66 395.64Q495.08 394.93 495.32 394.57Q505.42 379.48 518.2 372.1Q529.22 365.74 537.55 364.02Q554.87 360.44 574.49 365.66Q587.5 369.12 604.69 378.18Q605.37 378.54 607.11 379.5Q613.32 382.9 616.7 384.42L620.49 386.12L627.47 389.26L626.86 390.62L627.23 389.17Q629.52 389.75 633.92 391.48Q636.9 392.65 638.46 393.17Q643.58 394.87 653.28 397.02Q664.15 399.44 680.83 399.37L682.01 399.37L689.53 429.75L651.44 429.99L651.37 429.98Q645.59 429.47 632.01 424.9Q618.16 420.22 611.38 417.14Q603.44 413.53 594.07 408.04Q580.88 400.32 572.83 397.69Q564.65 395.02 554.26 393.88Q549.87 393.39 543.07 393.62Q540.28 393.72 538.5 393.76L538.47 393.76L538.45 393.76Q530.14 393.72 528.5 392.81Q526.82 391.89 527.51 390.26Q527.89 389.38 529.26 388.59Q531.48 387.31 537.47 385.4Q543.45 383.5 552.57 383.03Q561.54 382.56 568.09 383.75L567.83 385.22L567.82 383.72Q569.11 383.72 579.52 387.39Q587.77 390.3 590.7 391.44L590.15 392.84L590.38 391.35Q592.58 391.7 600.35 394.65Q602.92 395.63 603.8 395.94Q605.93 396.68 610.21 398.2Q631.74 405.82 642.4 408.08Q643 408.21 644.09 408.46Q646.98 409.12 648.23 409.15L648.19 410.65L648.18 409.15Q649.33 409.14 651.43 409.21Q657.2 409.41 660.36 408.29L660.86 409.7L660.49 411.16Q657.42 410.38 651.29 408.99Q639.54 406.32 633.94 404.44Q632.95 404.11 630.88 403.47Q626.18 402 624.01 401.07Q622.71 400.51 620.09 399.46Q617.93 398.59 616.87 398.15Q614.94 397.33 611 395.67Q590.04 386.79 579.4 383.04Q578.86 382.85 577.78 382.47Q566.94 378.63 561.64 377.59Q545.02 374.31 531.52 378.96Q515.6 384.45 505.15 394.89L501.3 398.88L497.41 402.89L496.33 401.85L497.83 401.82Q498.05 412.68 506.35 413.19L506.25 414.69L505.53 413.37Q507.51 412.27 510.91 410.06Q514.32 407.85 516.04 406.96Q520.55 404.61 528.8 402.56Q539.73 399.83 552.33 400.06Q567.92 400.36 583.65 406.32Q588.5 408.16 597.74 412.6Q602.52 414.9 604.96 416.01Q614.3 420.24 624.18 423.82L623.67 425.23L624.13 423.8Q643.99 430.17 660.7 433.09Q667.99 434.36 685.55 433.95Q688.13 433.89 689.35 433.87L690.54 433.84L693.77 446.9L691.94 446.98Q683.77 447.33 664.67 445.01Q664.25 444.96 663.29 444.84Q640.27 442.05 628.47 439.64Q626.03 439.09 620.24 437.91Q607.74 435.37 600.99 433.6Q597.66 432.73 589.92 430.61Q577.06 427.08 570.66 425.46Q545.07 418.98 525.09 419.36Q521.55 419.42 514.19 420.16Q511.72 420.41 510.43 420.53L510.29 419.04L511.53 419.88Q510.73 421.07 509.45 424.05Q509.16 424.73 509.01 425.07Q504.27 435.89 499.51 440.14L499.48 440.16L499.46 440.18Q494.85 443.98 489.39 445.6Q480.95 448.09 473.87 444.68Q468.5 442.09 464.94 437.6Q462.56 434.6 458.62 427.55Q457.47 425.5 456.89 424.49L458.19 423.74L458.43 425.22Q456.57 425.53 449.35 426.67Q410.74 432.77 387.13 436.95Q382.18 437.83 371.45 439.58Q357.19 441.9 349.99 443.23Q322.01 448.38 303.88 451.18L286.27 453.86L275.57 455.49L275.12 452.53L285.82 450.89L303.42 448.22Q321.51 445.43 349.44 440.27Q356.68 438.94 370.96 436.62Q381.67 434.87 386.61 434Q410.24 429.81 448.88 423.71Q456.1 422.57 457.95 422.26L458.97 422.1L459.49 423Q460.08 424.02 461.23 426.09Q465.06 432.92 467.29 435.74Q470.42 439.69 475.17 441.97Q481.21 444.88 488.53 442.72Q493.41 441.28 497.55 437.86L498.51 439.02L497.51 437.9Q501.78 434.09 506.26 423.87Q506.41 423.54 506.69 422.87Q508.08 419.63 509.05 418.2L509.44 417.61L510.15 417.55Q511.43 417.43 513.89 417.18Q521.37 416.43 525.03 416.36Q545.42 415.97 571.4 422.56Q577.83 424.18 590.72 427.71Q598.44 429.83 601.76 430.7Q608.42 432.45 620.84 434.97Q626.66 436.16 629.07 436.7Q640.75 439.09 663.65 441.86Q664.59 441.98 665.03 442.03Q683.89 444.32 691.81 443.98L691.88 445.48L690.42 445.84L687.92 435.73L689.38 435.37L689.4 436.87Q688.19 436.89 685.62 436.95Q667.77 437.36 660.19 436.04Q643.27 433.08 623.21 426.66L623.19 426.65L623.16 426.64Q613.17 423.02 603.73 418.74Q601.25 417.62 596.44 415.31Q587.31 410.92 582.59 409.13Q567.34 403.35 552.28 403.06Q540.07 402.84 529.52 405.47Q521.62 407.43 517.42 409.62Q515.84 410.44 512.55 412.58Q509.05 414.85 506.98 416L506.6 416.21L506.16 416.18Q495.1 415.5 494.83 401.88L494.82 401.25L499.14 396.79L503.03 392.77Q513.97 381.84 530.54 376.13Q544.81 371.21 562.22 374.64Q567.73 375.73 578.78 379.64Q579.85 380.02 580.4 380.21Q591.13 383.99 612.17 392.9Q616.1 394.57 618.04 395.39Q619.07 395.82 621.21 396.68Q623.86 397.74 625.2 398.32Q627.22 399.19 631.77 400.6Q633.88 401.26 634.89 401.6Q640.35 403.43 651.95 406.06Q658.12 407.46 661.23 408.25L666.01 409.47L661.36 411.12Q657.66 412.43 651.33 412.21Q649.28 412.14 648.2 412.15L648.18 412.15L648.15 412.15Q646.61 412.11 643.42 411.38Q642.36 411.14 641.78 411.02Q630.92 408.71 609.21 401.03Q604.93 399.51 602.82 398.77Q601.89 398.45 599.28 397.46Q591.81 394.61 589.92 394.32L589.76 394.29L589.61 394.23Q586.73 393.11 578.53 390.22Q568.6 386.72 567.83 386.72L567.69 386.72L567.56 386.7Q561.35 385.58 552.72 386.02Q543.99 386.48 538.38 388.26Q532.7 390.07 530.76 391.19Q530.4 391.39 530.23 391.54L530.28 391.43Q530.64 390.57 529.95 390.18Q530.92 390.72 538.46 390.76L538.46 392.26L538.42 390.76Q540.19 390.72 542.97 390.62Q549.98 390.39 554.59 390.9Q565.29 392.07 573.76 394.84Q582.12 397.57 595.58 405.45Q604.82 410.87 612.62 414.41Q619.26 417.42 632.97 422.06Q646.21 426.51 651.63 426.99L651.5 428.48L651.49 426.98L687.61 426.76L687.62 428.26L686.16 428.62L679.38 401.23L680.84 400.87L680.84 402.37Q663.83 402.44 652.64 399.95Q642.78 397.76 637.51 396.01Q635.88 395.47 632.82 394.27Q628.6 392.62 626.49 392.08L626.36 392.05L619.27 388.86L615.47 387.15Q611.98 385.59 605.67 382.13Q603.95 381.18 603.29 380.83Q586.4 371.93 573.72 368.56Q554.78 363.53 538.15 366.96Q530.3 368.58 519.7 374.7Q507.53 381.73 497.82 396.23Q497.62 396.53 497.24 397.17Q496.56 398.31 496.11 398.89L496.18 398.81Q495.08 401.19 493.1 400.45Q492.34 400.16 491.21 399.11Q489.9 397.88 489.9 397.13L491.4 397.13L489.91 397.32Q489.82 396.64 490.01 395.49Q490.04 395.29 490.05 395.2Q490.35 393.19 491.26 391.1Q492.89 387.38 495.87 383.46Q500.52 377.33 507.56 371.46Q514.04 366.05 519.04 363.66L519.69 365.01L518.64 363.94Q519.43 363.17 525.9 360.24Q526.8 359.83 527.06 359.71L527.69 361.07L526.99 359.74Q528.67 358.86 532.7 357.64Q538.87 355.77 543.09 355.35Q551.73 354.57 562.11 356.68Q573.74 359.05 591.96 366.07Q598.26 368.49 605.55 372.47Q607.51 373.54 611.34 375.72Q621.28 381.39 626.19 383.31L626.21 383.32L626.24 383.33Q630.9 385.37 640.98 387.61Q650.48 389.73 656.12 390.19L679.06 391.75L678.95 393.25L677.5 393.61L674.22 380.36L675.68 380L675.69 381.5Q672.85 381.52 667.77 381.66Q656.52 381.99 651.28 381.15Q642.96 379.82 634.39 374.71Q632.11 373.36 627.36 370.63Q619.62 366.2 615.8 363.83Q598.49 353.1 586.78 347.43Q576.69 342.56 566 339.9Q555.84 337.39 547.53 337.38Q539.37 337.38 532.35 339.72L532.29 339.74L532.23 339.76Q528.64 340.64 523.66 342.67Q518.04 344.98 515.94 346.73Q513.81 348.51 510.08 352.37Q508.19 354.33 507.37 354.21Q505.86 354 506.01 352.18Q506.05 351.72 506.22 350.86Q506.43 349.85 507.19 346.71Q507.77 344.31 508.09 342.95Q509.28 337.89 511.91 325.34L511.97 325.04Q512.53 322.38 514.18 317.58Q514.52 316.59 514.68 316.11L517.44 307.89L517.47 307.83Q523.37 294.41 527.49 287.44Q533.44 277.37 541.66 269.18Q547.73 263.15 557.04 257.45Q563.37 253.56 569.7 252.69L572.18 252.35L571.31 254.69Q568.13 263.33 567.32 268.46Q566.19 275.6 565.97 284.94Q565.76 293.04 566.76 297.1Q572.05 318.64 591.12 331.62Q593.84 333.47 599.53 335.67Q612.54 340.7 627.32 337.48Q641.09 334.47 652.8 325.24Q661.96 318.01 675.36 300.65Q676.89 298.67 677.66 297.67Q697.23 272.44 708.92 259.98Q725.63 242.16 746.31 227.2Q747.18 226.57 748.88 225.52Q751.07 224.17 751.82 223.46L752.85 224.55L751.57 225.32Q751.54 225.27 751.5 225.2Q751.44 225.08 751.33 225Q750.04 224.02 747.05 222.34Q719.94 207.12 693.98 179.48Q691.93 177.31 687.92 172.94Q675.97 159.95 669.37 154.05Q667.15 152.07 664.39 149.93Q653.85 141.86 640.79 138.29Q627.74 134.72 614.56 136.3Q597.23 138.39 585.05 152.11Q581.48 156.13 579.74 158.94Q572.65 170.39 572.82 184.02Q572.94 193.38 577.4 210.68L575.95 211.06L577.18 210.2Q578.8 212.53 578.43 214.35L578.28 215.1L577.6 215.42Q577.29 215.56 576.69 215.83Q575.64 216.31 575.16 216.55Q574.58 216.86 573.41 217.54Q572.67 217.97 572.28 218.2L572.17 218.26L572.05 218.3Q569.35 219.29 564.77 221.39Q554.89 225.93 546.31 227.2Q528.38 229.84 517.78 220.33L517.47 220.05L500.19 163.45L502.63 163.9Q504.89 164.32 508.88 165.1Q523.66 167.96 534.8 168.55Q552.7 169.48 566.28 159.28Q577.71 150.69 582.34 137.23Q586.82 124.16 583.92 109.64Q581.78 98.97 574.65 90.92Q570.15 85.85 559.09 77.42Q558.18 76.73 557.72 76.39Q554.47 73.9 547.83 69.12Q533.1 58.52 526.51 52.25Q504.5 31.26 500.28 25.92Q499.8 25.32 499.15 24.25Q495.52 18.28 483.35 1.16L484.58 0.29L484.4 1.78Q478.83 1.11 462.23 1.87Q445.61 2.64 438.96 3.88Q436.09 4.41 430.42 5.42Q403.66 10.18 390.5 15.18Q347.34 31.6 329.79 46.01L329.74 46.05L329.7 46.08Q297.86 68.52 276.21 95.57Q251.28 126.7 232.96 169.47Q229.39 177.81 228.97 180.59L228.94 180.79L227.92 183.12L226.54 182.52L228 182.86Q227.31 185.78 225.4 191.65Q223.54 197.36 222.96 199.93Q222.44 202.26 221.33 207.02Q217.59 223.02 216.55 230.82Q209.9 280.85 217.8 325.05Q219.11 332.36 222.69 347.28Q226.97 365.21 235.6 385.26Q245.74 408.83 262.04 433.78Q265.5 439.08 271.69 447.03Q273.61 449.51 276.51 453.06L275.34 454.01L276.47 453.02L288.73 466.92L286.48 468.91ZM276.79 454.39L272.54 470.65L271.09 470.27L270.88 468.79L287.39 466.43L287.6 467.91L287.35 466.43L338.4 457.98L388.51 449.38Q424.72 442.94 445.59 438.7L446.27 438.56L446.82 439Q448.23 440.11 451.74 444.72Q456.22 450.61 458.55 452.59L458.57 452.6L458.59 452.62Q467.17 460.36 475.12 461.67L478.82 462.28L485.39 463.36L485.15 464.84L483.65 464.83L483.79 445.63L484.83 445.31Q486.23 444.87 488.73 444.31Q490.16 444 490.81 443.82Q496.25 442.37 501.01 439.1Q506.31 435.45 509.56 430.47Q510.6 428.88 512.25 425.3Q512.69 424.33 512.93 423.83L513.38 422.87L523.03 423.79L617.19 439.48L695.27 452.96L699.67 470.73L697.55 470.51Q692.2 469.97 681.49 468.17Q677.47 467.49 675.44 467.17L637.35 460.96L619.64 457.99L554.81 447.33Q535.71 444.05 523.69 442.24L523.91 440.75L525.29 441.35Q523.24 446.09 518 451.12Q511.14 457.7 502.67 461.53Q494.97 464.99 485.49 466.36L485.27 464.88L486.77 464.88L486.75 549.27L485.29 549.31Q448.86 550.3 424.09 545.07Q393.28 538.57 376.9 531.17Q374.25 529.93 368.82 527.52Q358.09 522.76 353.31 520.11Q340.33 512.93 327.91 504.58Q324.41 502.24 317.65 497.05Q316.76 496.36 316.29 496Q306.41 488.44 297.4 479.82Q295.79 478.28 292.72 475.08Q288.69 470.88 286.61 469.04L288.59 466.79Q290.77 468.71 294.88 473Q297.91 476.16 299.48 477.66Q308.37 486.16 318.12 493.62Q318.57 493.97 319.48 494.67Q326.16 499.8 329.58 502.09Q341.9 510.37 354.76 517.49Q359.43 520.08 370.04 524.78Q375.49 527.2 378.13 528.44Q394.22 535.7 424.71 542.14Q449.14 547.29 485.21 546.31L485.25 547.81L483.75 547.81L483.77 463.58L485.06 463.4Q494.13 462.09 501.43 458.79Q509.44 455.18 515.92 448.95Q520.73 444.35 522.53 440.16L522.99 439.1L524.13 439.27Q536.19 441.09 555.3 444.37L620.13 455.04L637.83 458L675.91 464.21Q677.95 464.53 681.99 465.21Q692.6 466.99 697.85 467.53L697.7 469.02L696.25 469.38L692.59 454.63L694.05 454.27L693.8 455.75L616.7 442.44L522.59 426.75L522.83 425.27L522.69 426.77L514.14 425.96L514.28 424.46L515.64 425.1Q515.41 425.6 514.97 426.55Q513.23 430.33 512.07 432.11Q508.5 437.58 502.71 441.57Q497.53 445.13 491.58 446.72Q490.87 446.91 489.38 447.24Q487.01 447.77 485.73 448.17L485.28 446.74L486.78 446.75L486.64 466.6L478.33 465.24L474.64 464.63Q465.81 463.17 456.58 454.84L457.58 453.73L456.61 454.87Q454.03 452.68 449.35 446.54Q446.07 442.23 444.96 441.35L445.89 440.17L446.19 441.64Q425.28 445.89 389.01 452.33L338.89 460.94L287.83 469.4L269.07 472.08L273.89 453.63L276.79 454.39Z" fill="#1D724E" fill-opacity="1.000000" fill-rule="evenodd"/>
	</g>
</svg>
